<svg width="365" height="300" viewBox="0 0 365 300" fill="none" xmlns="http://www.w3.org/2000/svg">
<g clip-path="url(#clip0_6_262)">
<path opacity="0.18" d="M269.588 52.1299C258.469 39.4761 249.861 24.3697 236.57 14.0381C215.695 -2.21178 185.65 -3.79664 161.24 6.41467C136.83 16.626 117.799 37.2091 105.266 60.5156C98.673 72.7782 93.4942 86.1542 83.8334 96.1749C75.6667 104.641 64.9331 110.042 54.7559 115.926C38.3623 125.39 22.5602 136.815 11.9419 152.498C1.32356 168.181 -3.42409 188.779 3.364 206.453C7.9412 218.38 17.1608 227.869 26.6059 236.46C37.7206 246.561 49.6674 256.045 63.4541 262.039C80.7051 269.527 99.8762 271.137 118.666 271.899C151.978 273.244 185.342 272.239 218.512 268.89C245.675 266.151 273.659 261.477 296.385 246.345C328.22 225.155 344.633 186.331 348.328 148.26C349.832 133.033 349.451 117.209 343.576 103.081C329.523 69.2875 291.607 77.1917 269.588 52.1299Z" fill="#46BD70"/>
<path d="M134.789 119.978C134.789 119.978 122.191 117.761 118.661 126.498C115.132 135.235 118.661 165.407 118.661 165.407L165.666 198.699L134.789 119.978Z" fill="#3F3D56"/>
<path d="M193.997 254.355L175.763 259.757C174.491 260.13 173.122 259.984 171.957 259.351C170.792 258.717 169.925 257.648 169.547 256.376C169.173 255.103 169.319 253.734 169.953 252.569C170.586 251.403 171.655 250.536 172.926 250.157L191.154 244.761C192.426 244.387 193.794 244.532 194.959 245.165C196.124 245.797 196.991 246.865 197.371 248.136C197.745 249.408 197.599 250.777 196.967 251.942C196.335 253.108 195.267 253.975 193.997 254.355Z" fill="#46BD70"/>
<path d="M201.171 267.827C202.231 263.307 199.428 258.784 194.91 257.724C190.392 256.664 185.87 259.468 184.811 263.988C183.751 268.508 186.554 273.031 191.072 274.091C195.59 275.151 200.112 272.347 201.171 267.827Z" fill="#25233A"/>
<path d="M191.475 270.876C193.796 270.876 195.676 268.994 195.676 266.673C195.676 264.352 193.796 262.47 191.475 262.47C189.155 262.47 187.274 264.352 187.274 266.673C187.274 268.994 189.155 270.876 191.475 270.876Z" fill="#3F3D56"/>
<path d="M165.248 263.546C168.529 260.263 168.529 254.941 165.248 251.658C161.967 248.376 156.646 248.376 153.365 251.658C150.084 254.941 150.084 260.263 153.365 263.546C156.646 266.829 161.967 266.828 165.248 263.546Z" fill="#25233A"/>
<path d="M161.997 258.357C161.997 259.189 161.75 260.001 161.289 260.692C160.827 261.383 160.171 261.922 159.403 262.24C158.635 262.558 157.791 262.642 156.976 262.479C156.161 262.317 155.412 261.917 154.825 261.329C154.237 260.741 153.837 259.993 153.675 259.177C153.513 258.362 153.596 257.517 153.914 256.749C154.232 255.981 154.77 255.325 155.461 254.863C156.152 254.401 156.965 254.154 157.795 254.154C158.909 254.156 159.977 254.599 160.765 255.387C161.552 256.175 161.995 257.243 161.997 258.357Z" fill="url(#paint0_linear_6_262)"/>
<path d="M156.873 277.501C161.514 277.501 165.275 273.738 165.275 269.095C165.275 264.453 161.514 260.689 156.873 260.689C152.233 260.689 148.471 264.453 148.471 269.095C148.471 273.738 152.233 277.501 156.873 277.501Z" fill="#25233A"/>
<path d="M163.511 269.376C163.511 270.207 163.264 271.02 162.803 271.711C162.341 272.402 161.685 272.941 160.917 273.259C160.15 273.577 159.305 273.66 158.49 273.498C157.675 273.336 156.926 272.936 156.339 272.348C155.751 271.76 155.351 271.011 155.189 270.196C155.027 269.381 155.11 268.536 155.428 267.768C155.746 267 156.285 266.343 156.975 265.882C157.666 265.42 158.479 265.173 159.309 265.173C160.424 265.173 161.492 265.616 162.28 266.404C163.068 267.192 163.511 268.261 163.511 269.376Z" fill="#3F3D56"/>
<path d="M194.679 262.6L156.251 254.842C154.952 254.576 153.812 253.806 153.079 252.7C152.346 251.595 152.081 250.244 152.341 248.943C152.607 247.645 153.376 246.505 154.48 245.772C155.583 245.039 156.932 244.773 158.232 245.031L196.659 252.785C197.958 253.051 199.099 253.821 199.832 254.927C200.564 256.032 200.83 257.383 200.569 258.683C200.305 259.983 199.536 261.124 198.432 261.858C197.328 262.592 195.979 262.859 194.679 262.6Z" fill="#46BD70"/>
<path d="M170.991 202.205H181.484V246.416C181.484 247.807 180.931 249.141 179.948 250.125C178.964 251.109 177.63 251.662 176.24 251.662C174.849 251.662 173.515 251.109 172.532 250.125C171.548 249.141 170.996 247.807 170.996 246.416V202.205H170.991Z" fill="#46BD70"/>
<path d="M174.756 259.696L156.527 265.108C155.254 265.483 153.884 265.338 152.718 264.704C151.552 264.071 150.684 263 150.305 261.728C149.932 260.455 150.078 259.086 150.711 257.92C151.344 256.754 152.414 255.887 153.684 255.509L171.913 250.112C173.185 249.738 174.553 249.883 175.718 250.516C176.883 251.148 177.75 252.217 178.13 253.487C178.5 254.758 178.354 256.124 177.721 257.287C177.089 258.45 176.023 259.316 174.756 259.696Z" fill="#46BD70"/>
<path d="M177.774 259.16L175.768 259.757C175.171 259.934 174.545 259.997 173.923 259.942L174.761 259.696C175.343 259.525 175.888 259.248 176.37 258.879L177.774 259.16Z" fill="url(#paint1_linear_6_262)"/>
<path d="M197.581 249.56C197.58 250.713 197.18 251.829 196.448 252.72L180.506 249.495C180.907 248.948 181.197 248.328 181.358 247.67L191.179 244.761C191.924 244.546 192.709 244.507 193.472 244.646C194.234 244.786 194.954 245.101 195.575 245.566C196.195 246.031 196.699 246.634 197.047 247.327C197.396 248.02 197.578 248.785 197.581 249.56Z" fill="url(#paint2_linear_6_262)"/>
<path opacity="0.31" d="M171.126 247.609C171.035 247.218 170.99 246.817 170.991 246.416V202.205H174.635V249.851C174.6 250.085 174.612 250.324 174.67 250.553C174.119 250.315 173.527 250.184 172.926 250.167C172.502 250.138 172.076 250.138 171.652 250.167L171.913 250.092C172.073 250.062 171.337 248.512 171.126 247.609Z" fill="url(#paint3_linear_6_262)"/>
<path opacity="0.31" d="M198.053 262.059C197.321 262.463 196.498 262.675 195.661 262.676C195.325 262.675 194.989 262.641 194.659 262.575L177.754 259.16L176.345 258.879C175.863 259.248 175.318 259.525 174.736 259.696L173.898 259.942L156.527 265.108C155.254 265.483 153.884 265.338 152.718 264.704C151.552 264.071 150.684 263 150.306 261.728C151.036 262.405 151.98 262.806 152.974 262.863C153.969 262.92 154.952 262.628 155.755 262.039C157.876 260.569 166.318 258.362 171.101 257.189C172.207 256.924 173.212 256.343 173.995 255.518C174.778 254.693 175.306 253.658 175.513 252.539C175.513 252.399 175.558 252.269 175.573 252.138C176.37 253.001 177.834 253.969 180.481 254.791C186.998 256.798 197.582 258.127 197.582 258.127C197.582 258.127 199.492 260.002 198.053 262.059Z" fill="url(#paint4_linear_6_262)"/>
<path d="M199.868 260.374C199.539 260.891 199.116 261.342 198.619 261.703C198.955 261.357 199.386 260.895 199.868 260.374Z" fill="url(#paint5_linear_6_262)"/>
<path d="M171.126 247.609C171.333 248.498 171.768 249.318 172.389 249.987C172.234 250.017 172.074 250.057 171.913 250.102L156.111 254.781C154.936 254.483 153.909 253.768 153.22 252.77C152.531 251.772 152.227 250.558 152.364 249.353C152.501 248.148 153.07 247.034 153.965 246.216C154.861 245.398 156.022 244.933 157.234 244.906C157.571 244.907 157.906 244.941 158.237 245.006L171.126 247.609Z" fill="url(#paint6_linear_6_262)"/>
<path d="M195.471 34.6513C195.471 34.6513 195.265 19.0635 182.777 20.4076C170.289 21.7517 171.246 16.5909 165.912 17.1576C160.578 17.7244 154.381 22.9905 156.161 29.4955C157.941 36.0004 151.454 37.4549 147.192 42.39C142.931 47.3251 148.195 51.3625 155.374 56.1873C162.553 61.0121 154.928 59.7633 159.184 67.3917C163.44 75.0201 177.849 65.2752 177.849 65.2752L195.471 34.6513Z" fill="#3F3D56"/>
<path d="M93.6045 295.456L102.463 295.757V224.985C102.463 224.985 102.909 206.684 120.175 204.848C137.441 203.013 294.028 180.338 294.028 180.338C294.028 180.338 300.235 179.681 303.8 191.572C307.364 203.464 310.853 250.298 310.853 250.298L358.926 256.767C358.926 256.767 360.195 174.084 342.839 169.525C325.482 164.966 98.5025 188.217 98.5025 188.217C98.5025 188.217 81.6676 276.052 93.6045 295.456Z" fill="#46BD70"/>
<path d="M93.6045 295.456L102.463 295.757V224.985C102.463 224.985 102.909 206.684 120.175 204.848C137.441 203.013 294.028 180.338 294.028 180.338C294.028 180.338 300.235 179.681 303.8 191.572C307.364 203.464 310.853 250.298 310.853 250.298L358.926 256.767C358.926 256.767 360.195 174.084 342.839 169.525C325.482 164.966 98.5025 188.217 98.5025 188.217C98.5025 188.217 81.6676 276.052 93.6045 295.456Z" fill="url(#paint7_linear_6_262)"/>
<path d="M46.8599 196.899C46.8599 196.899 51.2014 172.865 81.7378 166.566L297.267 141.86C297.267 141.86 318.429 140.982 328.109 146.845C337.79 152.708 351.607 157.568 357.272 184.1C362.937 210.631 364.291 255.955 364.291 255.955L358.936 256.767C358.936 256.767 351.136 174.716 342.849 169.525C334.562 164.334 110.499 196.207 110.499 196.207C110.499 196.207 94.958 199.301 93.6044 222.342C92.2508 245.383 93.6044 295.456 93.6044 295.456L46.8599 276.573V196.899Z" fill="#46BD70"/>
<path opacity="0.19" d="M268.626 151.108C257.471 149.654 246.226 148.601 234.986 149.027C226.539 149.358 218.146 150.532 209.769 151.7L135.887 162.037C134.634 162.212 133.205 162.498 132.578 163.602C131.375 165.708 134.203 167.785 136.494 168.587C161.059 177.203 187.304 185.93 212.591 179.786C224.152 176.978 234.891 171.145 246.617 169.119C258.343 167.092 270.38 168.958 282.082 167.047C293.081 165.252 303.554 160.151 314.704 160.101C318.123 160.101 321.642 160.542 324.886 159.459C328.129 158.376 330.997 155.066 330.1 151.765C319.632 151.399 307.88 149.463 297.613 151.565C287.451 153.641 278.803 151.108 268.626 151.108Z" fill="url(#paint8_linear_6_262)"/>
<path d="M201.813 163.707L202.244 165.357C202.244 165.357 215.008 173.296 214.928 173.552C214.847 173.808 267.874 160.878 267.874 160.878L269.107 157.167L201.813 163.707Z" fill="url(#paint9_linear_6_262)"/>
<path d="M203.006 163.707L249.655 153.19L269.102 157.167L216.106 170.503L203.006 163.707Z" fill="url(#paint10_linear_6_262)"/>
<path d="M188.322 172.038L199.396 172.409C199.396 172.409 202.209 172.574 202.936 170.438C203.663 168.301 198.449 163.792 197.862 163.707C197.276 163.622 182.727 167.494 184.827 171.366L188.322 172.038Z" fill="url(#paint11_linear_6_262)"/>
<path d="M60.3158 281.157L54.9264 297.527C39.2948 303.079 26.0043 297.527 26.0043 297.527L22.139 280.37C22.139 280.37 41.636 286.825 60.3158 281.157Z" fill="#46BD70"/>
<path d="M60.3158 281.157L54.9264 297.527C39.2948 303.079 26.0043 297.527 26.0043 297.527L22.139 280.37C22.139 280.37 41.636 286.825 60.3158 281.157Z" fill="url(#paint12_linear_6_262)"/>
<path d="M66.427 265.915L64.6974 278.86L60.3157 281.157C41.6509 286.82 22.139 280.37 22.139 280.37L18.775 277.862L17.2058 265.915H66.427Z" fill="#46BD70"/>
<path d="M66.427 265.915L64.6974 278.86L60.3157 281.157C41.6509 286.82 22.139 280.37 22.139 280.37L18.775 277.862L17.2058 265.915H66.427Z" fill="url(#paint13_linear_6_262)"/>
<path d="M41.8114 270.344C55.4007 270.344 66.4169 268.361 66.4169 265.915C66.4169 263.47 55.4007 261.487 41.8114 261.487C28.2221 261.487 17.2058 263.47 17.2058 265.915C17.2058 268.361 28.2221 270.344 41.8114 270.344Z" fill="#46BD70"/>
<path d="M41.8114 270.344C55.4007 270.344 66.4169 268.361 66.4169 265.915C66.4169 263.47 55.4007 261.487 41.8114 261.487C28.2221 261.487 17.2058 263.47 17.2058 265.915C17.2058 268.361 28.2221 270.344 41.8114 270.344Z" fill="url(#paint14_linear_6_262)"/>
<path d="M30.1052 167.102C27.6888 165.959 25.0918 165.096 23.0013 163.426C18.7901 160.031 17.7222 154.183 16.4037 148.937C15.0852 143.691 12.5384 137.903 7.33452 136.398C5.38934 135.842 3.10826 136.062 1.62932 137.447C0.0701668 138.916 -0.245675 141.323 0.180461 143.425C0.606596 145.526 1.64436 147.437 2.4465 149.443C4.31938 154.103 4.88955 159.184 4.09589 164.143C3.43914 168.211 1.86996 172.334 2.87765 176.321C4.5872 183.086 13.1049 187.054 13.3405 194.025C13.501 198.729 9.63064 203.083 10.508 207.712C11.1547 211.138 14.3081 213.811 14.4786 217.291C14.6691 221.238 10.9391 224.579 11.1196 228.526C11.3001 232.473 15.2406 235.126 17.8124 238.211C19.9685 240.818 21.2506 244.037 21.4772 247.414C21.6126 249.52 21.3418 251.702 22.0287 253.698C22.53 255.158 23.5327 256.396 24.3098 257.71C25.167 259.13 25.8138 260.664 26.8465 261.978C28.1449 263.616 29.9044 264.825 31.8975 265.451C33.8906 266.077 36.0256 266.09 38.0263 265.489C38.8234 260.243 38.1266 254.892 38.3472 249.59C38.7833 239.319 42.6687 228.967 40.1821 218.997C39.2696 215.34 37.5149 211.87 37.2041 208.118C36.9284 204.768 37.8208 201.448 38.4424 198.143C39.7258 191.317 39.7058 184.26 39.1794 177.359C38.7633 171.902 34.913 169.379 30.1052 167.102Z" fill="#46BD70"/>
<path d="M45.4712 194.005C45.4311 198.584 46.4739 203.319 45.01 207.667C43.902 210.962 41.4655 213.66 40.2072 216.9C37.3044 224.378 41.2098 232.764 40.4127 240.748C40.0818 244.038 38.9538 247.198 38.2419 250.428C37.3494 254.516 37.1242 258.721 37.5751 262.881C37.5261 263.635 37.7498 264.381 38.2055 264.983C38.6611 265.586 39.3183 266.004 40.0568 266.161C42.5133 267.098 45.0579 267.785 47.652 268.213C46.7691 263.363 47.693 258.358 50.2489 254.144C54.2245 247.624 61.9501 243.231 63.3889 235.743C64.3615 230.672 62.0955 225.527 62.2559 220.366C62.3691 216.931 63.5503 213.618 65.6349 210.887C67.5049 208.449 70.0366 206.563 71.7763 204.036C75.9574 197.942 74.654 189.797 73.4106 182.51C72.1673 175.222 71.4454 166.837 76.3585 161.315C77.9126 159.569 79.938 158.26 81.3468 156.395C84.4851 152.237 83.693 145.832 80.0433 142.116C76.3936 138.399 70.5179 137.371 65.5547 139.006C63.4992 139.688 61.544 140.837 60.2706 142.602C57.7639 146.163 58.7666 151.028 59.8294 155.261C60.7569 158.937 61.5039 163.18 60.2355 166.887C59.288 169.645 56.8866 171.14 54.8462 173.061C49.1009 178.452 45.5364 186.096 45.4712 194.005Z" fill="#46BD70"/>
<path d="M40.2923 234.579C39.5804 239.555 38.5527 244.57 38.3421 249.56C38.3421 249.731 38.3421 249.896 38.3421 250.062C38.3421 250.227 38.282 250.303 38.2569 250.423C37.3643 254.511 37.1392 258.716 37.5901 262.876C37.6228 263.557 37.8042 264.223 38.1215 264.827C38.0965 265.038 38.0664 265.243 38.0363 265.454C36.0356 266.055 33.9006 266.042 31.9075 265.416C29.9144 264.79 28.1549 263.581 26.8565 261.943C25.8539 260.629 25.177 259.095 24.3198 257.675C23.5176 256.356 22.54 255.117 22.0387 253.663C21.3519 251.657 21.6226 249.485 21.4872 247.379C21.2606 244.002 19.9785 240.783 17.8225 238.175C15.2506 235.091 11.3051 232.503 11.1296 228.491C10.9542 224.478 14.6791 221.203 14.4886 217.256C14.3181 213.776 11.1647 211.102 10.518 207.677C9.64065 203.048 13.526 198.694 13.3505 193.99C13.1149 187.019 4.59721 183.051 2.88766 176.286C1.88498 172.298 3.44915 168.176 4.1059 164.108C4.89956 159.149 4.32939 154.068 2.45651 149.408C1.65437 147.402 0.616606 145.511 0.190471 143.39C-0.235665 141.268 0.0801766 138.876 1.63933 137.411C3.14334 136.027 5.39935 135.806 7.34453 136.363C12.5484 137.868 15.0902 143.656 16.4137 148.902C17.7372 154.148 18.8001 159.996 23.0113 163.391C25.0918 165.071 27.6988 165.924 30.1152 167.067C34.928 169.344 38.7783 171.867 39.1894 177.294C39.6907 184.195 39.7358 191.252 38.4524 198.077C37.8308 201.383 36.9484 204.703 37.2141 208.053C37.4798 211.403 38.9387 214.573 39.8913 217.823C39.9965 218.189 40.1018 218.56 40.1921 218.931C41.4554 224.092 41.0493 229.313 40.2923 234.579Z" fill="url(#paint15_linear_6_262)"/>
<path d="M38.1266 264.832C37.8093 264.228 37.6279 263.562 37.5952 262.881C37.1442 258.721 37.3694 254.516 38.2619 250.428C38.287 250.308 38.3171 250.187 38.3472 250.067C38.1717 254.992 38.7432 259.957 38.1266 264.832Z" fill="url(#paint16_linear_6_262)"/>
<path d="M81.3267 156.395C79.9179 158.26 77.8925 159.569 76.3384 161.315C71.4253 166.832 72.1472 175.222 73.3905 182.51C74.6339 189.797 75.9373 197.942 71.7562 204.036C70.0166 206.543 67.4848 208.449 65.6148 210.887C63.5302 213.618 62.349 216.931 62.2358 220.366C62.0754 225.527 64.3414 230.672 63.3688 235.743C61.93 243.231 54.2044 247.634 50.2288 254.144C47.6798 258.361 46.7631 263.366 47.652 268.213C45.0646 267.784 42.5268 267.097 40.0768 266.161C39.4064 265.963 38.7986 265.595 38.3121 265.093C38.243 265.011 38.1809 264.924 38.1266 264.832C37.8093 264.228 37.6279 263.563 37.5952 262.881C37.1442 258.721 37.3694 254.516 38.2619 250.428C38.287 250.308 38.3171 250.187 38.3472 250.067C39.0591 246.962 40.1119 243.918 40.4327 240.748C40.6054 238.693 40.5651 236.626 40.3124 234.579C41.0694 229.313 41.4755 224.092 40.1971 218.967C40.1069 218.595 40.0016 218.224 39.8963 217.858C39.9915 217.537 40.1018 217.216 40.2272 216.9C41.4855 213.66 43.922 210.962 45.03 207.667C46.4889 203.319 45.4511 198.584 45.4912 194.005C45.5564 186.096 49.1209 178.457 54.8461 173.061C56.8866 171.14 59.288 169.645 60.2355 166.887C61.5039 163.18 60.7368 158.937 59.8294 155.261C58.7616 151.028 57.7489 146.163 60.2706 142.602C61.5239 140.837 63.4992 139.688 65.5547 139.006C70.4978 137.371 76.3986 138.399 80.0433 142.116C83.688 145.832 84.4651 152.262 81.3267 156.395Z" fill="url(#paint17_linear_6_262)"/>
<path d="M170.189 77.7183C170.189 77.7183 149.097 80.9432 139.341 103.949C129.585 126.954 134.659 155.497 134.829 157.979C135 160.462 164.724 171.366 173.222 171.366C181.719 171.366 183.489 162.95 183.489 162.95L168.474 156.625L214.096 151.414H222.287L217.775 158.912C217.775 158.912 226.679 159.835 232.63 160.046C238.581 160.256 242.622 148.616 243.288 142.828C243.955 137.04 217.003 86.2846 212.978 83.2302C208.952 80.1759 198.003 72.8935 170.189 77.7183Z" fill="#46BD70"/>
<path d="M195.471 34.6513C195.471 34.6513 199.206 36.7828 198.87 43.679C198.534 50.5751 196.428 60.9519 194.303 63.6402C192.177 66.3284 184.742 67.3816 184.742 67.3816C184.742 67.3816 188.798 77.1566 191.816 79.6793C194.834 82.2021 188.783 91.4956 182.897 88.4462C177.012 85.3969 170.188 77.7183 170.188 77.7183C170.188 77.7183 175.097 68.4951 173.437 63.6402C171.778 58.7853 165.416 41.7681 170.188 37.1038C174.961 32.4395 185.173 25.7891 195.471 34.6513Z" fill="url(#paint18_linear_6_262)"/>
<path opacity="0.25" d="M161.651 110.855L158.347 151.414L168.449 156.625L176.671 155.216L166.413 142.833L161.651 110.855Z" fill="white"/>
<path opacity="0.25" d="M214.928 108.809C214.928 108.809 228.138 140.26 222.282 151.414L217.77 150.547L214.928 108.809Z" fill="white"/>
<path d="M177.999 161.495C177.999 161.495 172.956 166.009 175.207 169.52C177.458 173.031 180.145 172.93 182.386 171.361C184.627 169.791 189.029 166.064 194.273 167.775C199.517 169.485 200.79 170.573 200.79 170.573C200.79 170.573 203.552 168.763 202.835 166.947C202.119 165.131 196.634 159.248 195.045 158.466C193.455 157.684 186.858 160.046 186.858 160.046C186.858 160.046 182.01 158.692 177.999 161.495Z" fill="url(#paint19_linear_6_262)"/>
<path d="M223.781 153.024C223.781 153.024 218.978 153.576 217.765 156.625C216.552 159.675 216.116 160.046 216.116 160.046C216.116 160.046 218.828 160.547 219.956 159.128C221.084 157.709 222.257 158.305 222.257 158.305L221.921 160.126C221.921 160.126 229.291 161.199 232.62 160.046C235.949 158.892 237.378 157.538 237.378 157.538L238.681 154.459C238.681 154.459 235.538 152.257 233.166 151.916C230.795 151.575 223.781 153.024 223.781 153.024Z" fill="url(#paint20_linear_6_262)"/>
<path d="M248.156 186.933C248.156 186.933 264.515 199.391 263.061 216.243C261.607 233.095 259.471 258.117 259.471 258.117C259.471 258.117 252.874 260.895 248.502 258.117C244.13 255.338 241.483 217.316 239.318 213.685C237.152 210.054 224.122 193.684 210.2 192.275L248.156 186.933Z" fill="#25233A"/>
<path d="M165.667 198.679C165.667 198.679 173.553 206.202 187.61 208.565C201.667 210.927 208.22 212.898 212.516 224.99C216.813 237.082 220.934 263.107 222.282 266.016C223.631 268.925 229.366 267.44 229.366 267.44C229.366 267.44 232.61 263.719 232.61 243.025C232.61 214.177 234.615 208.264 227.391 201.016C220.167 193.769 213.594 191.793 213.594 191.793L165.667 198.679Z" fill="#3F3D56"/>
<path d="M222.282 266.016L223.621 276.573H226.128C226.128 276.573 242.271 277.456 242.777 277.075C243.283 276.694 242 268.714 235.884 268.94C229.767 269.165 229.366 267.435 229.366 267.435L222.282 266.016ZM250.477 258.984L253.084 269.376L281.57 265.464C281.57 265.464 282.573 258.638 273.549 259.315C271.168 259.491 269.393 261.166 266.53 261.181C263.668 261.196 260.925 260.022 259.481 258.117L250.477 258.984Z" fill="#25233A"/>
<path d="M349.807 128.253L241.985 134.031C241.344 134.065 240.703 133.968 240.101 133.747C239.499 133.525 238.948 133.183 238.482 132.741C238.017 132.3 237.646 131.768 237.392 131.178C237.138 130.589 237.007 129.953 237.007 129.312V52.8721C237.006 51.3835 237.589 49.9541 238.631 48.8908C239.672 47.8274 241.089 47.2149 242.576 47.1847L349.958 44.9679C350.648 44.9539 351.335 45.0779 351.978 45.3328C352.62 45.5876 353.205 45.9681 353.698 46.452C354.192 46.9359 354.584 47.5134 354.851 48.1508C355.119 48.7882 355.257 49.4725 355.257 50.1638V122.501C355.256 123.975 354.691 125.393 353.677 126.463C352.664 127.533 351.279 128.174 349.807 128.253Z" fill="#46BD70"/>
<path d="M354.78 128.253L246.958 134.031C246.318 134.064 245.677 133.967 245.076 133.745C244.474 133.523 243.924 133.181 243.459 132.739C242.994 132.298 242.623 131.766 242.37 131.177C242.116 130.588 241.985 129.953 241.985 129.312V52.8721C241.983 51.384 242.565 49.9546 243.606 48.8911C244.646 47.8276 246.062 47.2149 247.55 47.1847L354.931 44.9679C355.622 44.9532 356.309 45.0768 356.952 45.3313C357.595 45.5858 358.181 45.9662 358.675 46.4502C359.169 46.9342 359.561 47.5119 359.829 48.1496C360.097 48.7873 360.235 49.4721 360.235 50.1638V122.501C360.233 123.975 359.667 125.393 358.653 126.463C357.638 127.533 356.252 128.174 354.78 128.253Z" fill="#46BD70"/>
<path d="M354.78 128.253L246.958 134.031C246.318 134.064 245.677 133.967 245.076 133.745C244.474 133.523 243.924 133.181 243.459 132.739C242.994 132.298 242.623 131.766 242.37 131.177C242.116 130.588 241.985 129.953 241.985 129.312V52.8721C241.983 51.384 242.565 49.9546 243.606 48.8911C244.646 47.8276 246.062 47.2149 247.55 47.1847L354.931 44.9679C355.622 44.9532 356.309 45.0768 356.952 45.3313C357.595 45.5858 358.181 45.9662 358.675 46.4502C359.169 46.9342 359.561 47.5119 359.829 48.1496C360.097 48.7873 360.235 49.4721 360.235 50.1638V122.501C360.233 123.975 359.667 125.393 358.653 126.463C357.638 127.533 356.252 128.174 354.78 128.253Z" fill="url(#paint21_linear_6_262)"/>
<path d="M323.387 157.127L296.009 160.046C296.009 160.046 287.672 158.361 288.123 157.127C288.574 155.893 297.282 154.704 297.282 154.704V104.972C297.207 104.862 296.059 103.397 292.916 102.464C292.306 102.285 291.687 102.141 291.061 102.033C290.522 101.955 289.998 101.796 289.506 101.561C287.636 100.593 289.702 98.9083 292.605 98.8331C293.059 98.8182 293.514 98.845 293.963 98.9133H315.019C315.019 98.9133 322.991 101.16 323.377 112.375C323.763 123.589 323.387 157.127 323.387 157.127Z" fill="#46BD70"/>
<path d="M301.107 157.232L295.994 160.046C295.994 160.046 287.657 158.361 288.108 157.127C288.559 155.893 297.267 154.704 297.267 154.704V104.972C297.162 104.857 295.883 103.538 292.901 102.464C291.79 102.072 290.65 101.77 289.491 101.561C287.621 100.593 289.687 98.9083 292.59 98.8331C295.061 99.1691 299.929 101.877 300.245 103.422C300.561 104.967 301.107 157.232 301.107 157.232Z" fill="#46BD70"/>
<path d="M301.107 157.232L295.994 160.046C295.994 160.046 287.657 158.361 288.108 157.127C288.559 155.893 297.267 154.704 297.267 154.704V104.972C297.162 104.857 295.883 103.538 292.901 102.464C291.79 102.072 290.65 101.77 289.491 101.561C287.621 100.593 289.687 98.9083 292.59 98.8331C295.061 99.1691 299.929 101.877 300.245 103.422C300.561 104.967 301.107 157.232 301.107 157.232Z" fill="url(#paint22_linear_6_262)"/>
<path d="M198.619 261.703C197.983 262.355 197.687 262.595 198.063 262.059C198.258 261.955 198.444 261.836 198.619 261.703Z" fill="url(#paint23_linear_6_262)"/>
</g>
<defs>
<linearGradient id="paint0_linear_6_262" x1="153.594" y1="258.357" x2="161.997" y2="258.357" gradientUnits="userSpaceOnUse">
<stop stop-color="#183866"/>
<stop offset="1" stop-color="#1A7FC1"/>
</linearGradient>
<linearGradient id="paint1_linear_6_262" x1="173.918" y1="259.421" x2="177.774" y2="259.421" gradientUnits="userSpaceOnUse">
<stop/>
<stop offset="0.99" stop-opacity="0"/>
</linearGradient>
<linearGradient id="paint2_linear_6_262" x1="182.516" y1="253.041" x2="205.456" y2="242.801" gradientUnits="userSpaceOnUse">
<stop/>
<stop offset="0.99" stop-opacity="0"/>
</linearGradient>
<linearGradient id="paint3_linear_6_262" x1="182.16" y1="223.245" x2="154.279" y2="232.592" gradientUnits="userSpaceOnUse">
<stop/>
<stop offset="0.99" stop-opacity="0"/>
</linearGradient>
<linearGradient id="paint4_linear_6_262" x1="197.627" y1="253.507" x2="126.165" y2="277.469" gradientUnits="userSpaceOnUse">
<stop/>
<stop offset="0.99" stop-opacity="0"/>
</linearGradient>
<linearGradient id="paint5_linear_6_262" x1="200.043" y1="260.77" x2="197.566" y2="261.602" gradientUnits="userSpaceOnUse">
<stop/>
<stop offset="0.99" stop-opacity="0"/>
</linearGradient>
<linearGradient id="paint6_linear_6_262" x1="172.7" y1="253.668" x2="150.986" y2="247.769" gradientUnits="userSpaceOnUse">
<stop/>
<stop offset="0.99" stop-opacity="0"/>
</linearGradient>
<linearGradient id="paint7_linear_6_262" x1="349.366" y1="225.863" x2="-39.1901" y2="244.545" gradientUnits="userSpaceOnUse">
<stop/>
<stop offset="0.99" stop-opacity="0"/>
</linearGradient>
<linearGradient id="paint8_linear_6_262" x1="132.267" y1="165.387" x2="330.24" y2="165.387" gradientUnits="userSpaceOnUse">
<stop stop-color="#183866"/>
<stop offset="1" stop-color="#1A7FC1"/>
</linearGradient>
<linearGradient id="paint9_linear_6_262" x1="235.287" y1="158.356" x2="236.075" y2="167.885" gradientUnits="userSpaceOnUse">
<stop stop-color="#68E1FD"/>
<stop offset="0.2" stop-color="#5DB4CF"/>
<stop offset="0.46" stop-color="#50819B"/>
<stop offset="0.69" stop-color="#475C76"/>
<stop offset="0.87" stop-color="#41455E"/>
<stop offset="0.99" stop-color="#3F3D56"/>
</linearGradient>
<linearGradient id="paint10_linear_6_262" x1="232.876" y1="141.77" x2="238.821" y2="176.646" gradientUnits="userSpaceOnUse">
<stop stop-color="#68E1FD"/>
<stop offset="0.2" stop-color="#5DB4CF"/>
<stop offset="0.46" stop-color="#50819B"/>
<stop offset="0.69" stop-color="#475C76"/>
<stop offset="0.87" stop-color="#41455E"/>
<stop offset="0.99" stop-color="#3F3D56"/>
</linearGradient>
<linearGradient id="paint11_linear_6_262" x1="193.887" y1="160.718" x2="193.776" y2="175.744" gradientUnits="userSpaceOnUse">
<stop stop-color="#D668FD"/>
<stop offset="0.2" stop-color="#B15DCF"/>
<stop offset="0.46" stop-color="#88509B"/>
<stop offset="0.69" stop-color="#674776"/>
<stop offset="0.87" stop-color="#41455E"/>
<stop offset="0.99" stop-color="#3F3D56"/>
</linearGradient>
<linearGradient id="paint12_linear_6_262" x1="66.9785" y1="288.841" x2="33.0882" y2="290.134" gradientUnits="userSpaceOnUse">
<stop/>
<stop offset="0.99" stop-opacity="0"/>
</linearGradient>
<linearGradient id="paint13_linear_6_262" x1="72.1322" y1="273.283" x2="44.0523" y2="274.25" gradientUnits="userSpaceOnUse">
<stop/>
<stop offset="0.99" stop-opacity="0"/>
</linearGradient>
<linearGradient id="paint14_linear_6_262" x1="45.2555" y1="249.33" x2="31.0417" y2="317.777" gradientUnits="userSpaceOnUse">
<stop/>
<stop offset="0.99" stop-opacity="0"/>
</linearGradient>
<linearGradient id="paint15_linear_6_262" x1="38.8334" y1="265.324" x2="10.2202" y2="134.883" gradientUnits="userSpaceOnUse">
<stop/>
<stop offset="0.99" stop-opacity="0"/>
</linearGradient>
<linearGradient id="paint16_linear_6_262" x1="40.4327" y1="267.937" x2="37.0913" y2="252.695" gradientUnits="userSpaceOnUse">
<stop/>
<stop offset="0.99" stop-opacity="0"/>
</linearGradient>
<linearGradient id="paint17_linear_6_262" x1="36.4271" y1="274.743" x2="68.5264" y2="164.898" gradientUnits="userSpaceOnUse">
<stop/>
<stop offset="0.99" stop-opacity="0"/>
</linearGradient>
<linearGradient id="paint18_linear_6_262" x1="168.454" y1="59.673" x2="198.895" y2="59.673" gradientUnits="userSpaceOnUse">
<stop stop-color="#ECC4D7"/>
<stop offset="0.42" stop-color="#EFD4D1"/>
<stop offset="1" stop-color="#F2EAC9"/>
</linearGradient>
<linearGradient id="paint19_linear_6_262" x1="174.635" y1="165.357" x2="202.936" y2="165.357" gradientUnits="userSpaceOnUse">
<stop stop-color="#ECC4D7"/>
<stop offset="0.42" stop-color="#EFD4D1"/>
<stop offset="1" stop-color="#F2EAC9"/>
</linearGradient>
<linearGradient id="paint20_linear_6_262" x1="216.106" y1="156.229" x2="238.671" y2="156.229" gradientUnits="userSpaceOnUse">
<stop stop-color="#ECC4D7"/>
<stop offset="0.42" stop-color="#EFD4D1"/>
<stop offset="1" stop-color="#F2EAC9"/>
</linearGradient>
<linearGradient id="paint21_linear_6_262" x1="366.346" y1="132.817" x2="241.107" y2="49.9395" gradientUnits="userSpaceOnUse">
<stop/>
<stop offset="0.99" stop-opacity="0"/>
</linearGradient>
<linearGradient id="paint22_linear_6_262" x1="344.884" y1="177.519" x2="257.814" y2="96.3604" gradientUnits="userSpaceOnUse">
<stop/>
<stop offset="0.99" stop-opacity="0"/>
</linearGradient>
<linearGradient id="paint23_linear_6_262" x1="198.679" y1="261.888" x2="197.837" y2="262.169" gradientUnits="userSpaceOnUse">
<stop/>
<stop offset="0.99" stop-opacity="0"/>
</linearGradient>
<clipPath id="clip0_6_262">
<rect width="364.286" height="300" fill="white"/>
</clipPath>
</defs>
</svg>
